<?xml version="1.0" encoding="UTF-8" standalone="no"?>
<!-- Created with Inkscape (http://www.inkscape.org/) -->

<svg
   width="781.81329"
   height="457.57974"
   viewBox="0 0 781.81329 457.57974"
   version="1.1"
   id="svg1"
   xml:space="preserve"
   xmlns="http://www.w3.org/2000/svg"
   xmlns:svg="http://www.w3.org/2000/svg"><defs
     id="defs1" /><g
     id="layer1"
     transform="translate(-19.338671,-1.385113)"><g
       id="g19"><path
         style="fill:#060606;stroke:none;stroke-width:6.33981"
         d="M 229.3606,1.3851845 V 249.2409 h 194.88464 v 38.13161 H 229.3606 l -0.0911,171.09543 82.54214,0.4969 H 499.20072 V 153.91174 H 304.31608 V 115.78005 H 499.20072 V 1.385113 H 229.36049 M 484.20964,20.45096 V 96.714271 H 289.32501 v 76.263239 h 194.88463 v 266.92156 h -89.94682 c 5.26853,-79.69036 -65.23292,-79.6903 -59.96444,0 H 244.35163 V 306.4383 H 439.23626 V 230.17498 H 244.35163 V 20.45096 H 484.20964 M 361.15586,391.55893 c 26.12187,-5.1342 27.93189,49.89234 4.29855,54.23685 -23.02654,4.23295 -26.81706,-49.81094 -4.29855,-54.23685 z"
         id="path1" /><path
         style="font-size:192px;-inkscape-font-specification:'sans-serif, Normal';white-space:pre;fill:#b3b3b3;fill-opacity:1;stroke:#000000;stroke-width:0;stroke-miterlimit:0"
         d="M 740.10893,310.49708 696.50677,183.04669 h 16.14045 l 36.18215,107.30418 36.25864,-107.30418 h 16.06396 L 757.6263,310.49708 Z"
         id="path19" /><path
         style="font-size:192px;-inkscape-font-specification:'sans-serif, Normal';white-space:pre;fill:#808080;fill-opacity:1;stroke:#000000;stroke-width:0;stroke-miterlimit:0"
         d="m 664.53185,250.74137 q 4.97217,1.87804 9.63838,8.02434 4.74268,6.1463 9.48537,16.90233 l 15.68149,34.82904 h -16.59941 l -14.61056,-32.69491 q -5.66064,-12.8048 -11.01529,-16.98769 -5.27817,-4.18291 -14.45756,-4.18291 h -16.8289 v 53.86551 h -15.452 V 183.04669 h 34.88173 q 19.58274,0 29.22108,9.13408 9.63841,9.13409 9.63841,27.573 0,12.03651 -5.04868,19.97548 -4.97218,7.93897 -14.53406,11.01212 z m -38.70648,-53.52405 v 45.24362 h 19.42973 q 11.16827,0 16.8289,-5.71947 5.73715,-5.80485 5.73715,-16.9877 0,-11.18286 -5.73715,-16.81697 -5.66063,-5.71948 -16.8289,-5.71948 z"
         id="path18" /><path
         style="font-size:192px;-inkscape-font-specification:'sans-serif, Normal';white-space:pre;fill:#808080;fill-opacity:1;stroke:#000000;stroke-width:0;stroke-miterlimit:0"
         d="m 511.3888,183.04669 h 72.21129 v 14.51211 h -56.7593 v 37.73146 h 54.38796 v 14.51209 h -54.38796 v 46.18263 h 58.13623 v 14.5121 H 511.3888 Z"
         id="text8" /><path
         style="font-size:192px;-inkscape-font-specification:'sans-serif, Normal';white-space:pre;fill:#ffffff;stroke:#000000;stroke-width:0;stroke-miterlimit:0"
         d="m 721.93356,434.29036 h 25.03122 v -97.23107 l -27.23094,6.1463 v -15.70721 l 27.07922,-6.1463 h 15.32216 v 112.93828 h 25.03122 v 14.51211 h -65.23288 z"
         id="path13" /><path
         style="font-size:192px;-inkscape-font-specification:'sans-serif, Normal';white-space:pre;fill:#ffffff;stroke:#000000;stroke-width:0;stroke-miterlimit:0"
         d="m 726.6859,434.26236 h 25.03122 v -97.23108 l -27.23092,6.1463 v -15.70721 l 27.07923,-6.14631 h 15.32214 v 112.9383 h 25.03123 v 14.5121 h -65.2329 z"
         id="path13-5" /><path
         style="font-size:192px;-inkscape-font-specification:'sans-serif, Normal';white-space:pre;fill:#808080;fill-opacity:1;stroke:#000000;stroke-width:0;stroke-miterlimit:0"
         d="m 663.67907,389.04676 q 4.93039,1.87804 9.55737,8.02433 4.70284,6.14631 9.40568,16.90233 l 15.54969,34.82905 h -16.45993 l -14.48776,-32.6949 q -5.61307,-12.8048 -10.92273,-16.9877 -5.2338,-4.18291 -14.33605,-4.18291 h -16.68749 v 53.86551 H 609.97572 V 321.35208 h 34.5886 q 19.41815,0 28.97554,9.13408 9.55737,9.13408 9.55737,27.57299 0,12.03651 -5.00625,19.97549 -4.93038,7.93897 -14.41191,11.01212 z m -38.38122,-53.52405 v 45.24362 h 19.26647 q 11.07441,0 16.68747,-5.71948 5.68892,-5.80484 5.68892,-16.9877 0,-11.18284 -5.68892,-16.81696 -5.61306,-5.71948 -16.68747,-5.71948 z"
         id="path12" /><path
         style="font-size:192px;-inkscape-font-specification:'sans-serif, Normal';white-space:pre;fill:#808080;fill-opacity:1;stroke:#000000;stroke-width:0;stroke-miterlimit:0"
         d="m 511.82298,321.35208 h 71.60447 v 14.51209 h -56.28234 v 37.73148 h 53.93092 v 14.5121 h -53.93092 v 46.18261 h 57.64768 v 14.51211 h -72.96981 z"
         id="text8-1" /><path
         style="fill:#808080;fill-opacity:1;stroke:#000000;stroke-width:0;stroke-miterlimit:0"
         d="m 249.12813,458.00024 -19.76786,-0.28877 v -84.85662 -84.85661 h 97.61905 97.61905 V 268.25939 248.52055 H 326.97932 229.36027 V 125.15274 1.7849454 H 364.07456 498.78884 V 58.534134 115.28332 H 401.1698 303.55075 v 19.73885 19.73886 h 97.61905 97.61904 v 151.98912 151.98913 l -114.94642,-0.22512 c -63.22054,-0.12382 -123.84197,-0.35507 -134.71429,-0.51392 z m 122.91939,-14.62285 c 2.50736,-1.6271 4.55489,-4.32511 6.83333,-9.00425 3.04459,-6.25257 3.25059,-7.31533 3.21206,-16.57121 -0.0337,-8.09331 -0.44142,-10.7845 -2.24412,-14.81261 -5.00734,-11.18882 -12.77127,-14.8039 -22.35128,-10.4073 -13.61623,6.24897 -16.11377,37.21094 -3.99513,49.52784 5.2586,5.34462 11.59487,5.7777 18.54514,1.26753 z m -37.25868,-12.67914 c 0,-17.91193 4.47116,-32.39166 12.85108,-41.61792 7.75684,-8.54024 16.597,-10.49364 26.01534,-5.7486 12.30054,6.19713 19.73968,23.2804 20.04899,46.04061 l 0.14412,10.60423 45.6369,0.005 45.63691,0.005 V 306.25668 172.52597 H 387.50313 289.88408 V 135.02694 97.527892 l 97.375,-0.251502 97.375,-0.251503 V 58.534134 20.043379 L 364.31861,19.792759 244.00313,19.542138 V 125.14887 230.75558 h 97.61905 97.61905 v 37.50381 37.50382 h -97.61905 -97.61905 v 67.11207 67.11209 h 45.39286 45.39285 z"
         id="path14" /><path
         style="fill:#808080;fill-opacity:1;stroke:#000000;stroke-width:0;stroke-miterlimit:0"
         d="m 244.97932,372.87528 v -66.12513 h 97.13095 97.13096 V 268.25939 229.76864 H 342.11027 244.97932 V 125.15274 20.536851 h 119.58333 119.58334 v 37.997283 37.997282 h -97.61905 -97.61905 v 38.490754 38.49076 h 97.61905 97.61905 v 132.74375 132.74375 l -44.66072,-0.005 -44.66071,-0.005 -0.10226,-9.66563 c -0.19967,-18.87452 -5.38496,-34.00123 -14.56206,-42.48097 -15.72302,-14.52821 -35.08773,-5.93924 -43.04824,19.09349 -1.94154,6.10539 -2.63201,10.7486 -3.04536,20.47905 l -0.53454,12.58353 h -44.27639 -44.27639 z"
         id="path15" /><path
         style="fill:#00ff00;fill-opacity:1;stroke:#000000;stroke-width:0;stroke-miterlimit:0"
         d="m 359.19411,444.81128 c -5.89442,-2.40297 -9.83749,-8.59366 -11.75726,-18.4591 -4.26187,-21.90126 9.19634,-40.7437 23.3549,-32.69851 4.74618,2.69688 7.50017,6.98788 9.46655,14.74983 2.64464,10.43925 0.58542,22.84395 -5.02716,30.28347 -3.99908,5.30079 -11.25761,8.07273 -16.03703,6.12431 z"
         id="path16" /><path
         style="fill:#cccccc;fill-opacity:1;stroke:#000000;stroke-width:0;stroke-miterlimit:0"
         d="m 244.97932,372.87528 v -66.12513 h 97.13095 97.13096 V 268.25939 229.76864 H 342.11027 244.97932 V 125.15274 20.536851 h 119.58333 119.58334 v 37.997283 37.997282 h -97.61905 -97.61905 v 38.490754 38.49076 h 97.61905 97.61905 v 132.74375 132.74375 h -44.26763 -44.26765 l -0.60106,-11.59656 c -0.33057,-6.37813 -1.29315,-14.26133 -2.13903,-17.51824 -3.60554,-13.88225 -10.70478,-24.21825 -19.36463,-28.19355 -5.23575,-2.40347 -13.57464,-2.43093 -18.70524,-0.0616 -11.32574,5.23027 -20.91626,24.74629 -20.97115,42.67482 -0.009,3.04544 -0.2963,7.59771 -0.63773,10.11615 l -0.62078,4.57899 H 288.7752 244.97932 Z"
         id="path17" /><path
         id="path10"
         style="font-size:192px;-inkscape-font-specification:'sans-serif, Normal';white-space:pre;fill:#808080;stroke:#fefefe;stroke-width:4.18912;stroke-miterlimit:0;stroke-dasharray:none;stroke-opacity:1"
         d="m 21.433231,193.24183 v 261.87778 h 14.067832 v 0.008 H 217.73083 V 425.3088 H 203.663 v -0.008 H 73.764942 V 330.41561 H 208.44794 V 300.59664 H 194.3801 v -0.008 H 73.764942 V 223.06895 H 214.32027 v -29.81896 h -14.06783 v -0.008 z" /><path
         id="text8-5-9"
         style="font-size:192px;-inkscape-font-specification:'sans-serif, Normal';white-space:pre;fill:#ffffff;stroke:#000000;stroke-width:0;stroke-miterlimit:0"
         d="m 100.7774,333.19922 v 0.15625 H 79.704464 v 10.17383 h 86.018976 l -88.167229,69.96289 v 9.21679 H 191.40796 v -0.15625 h 21.07295 v -10.17578 h -90.31548 l 88.16723,-69.96093 v -9.2168 z" /></g></g></svg>
